<mxfile host="app.diagrams.net" agent="Mozilla/5.0 (Windows NT 10.0; Win64; x64) AppleWebKit/537.36 (KHTML, like Gecko) Chrome/130.0.0.0 Safari/537.36" version="24.7.16">
  <diagram name="Страница — 1" id="KrTkukaW_4oB7MUjPAy0">
    <mxGraphModel dx="432" dy="351" grid="1" gridSize="10" guides="1" tooltips="1" connect="1" arrows="1" fold="1" page="1" pageScale="1" pageWidth="827" pageHeight="1169" math="0" shadow="0">
      <root>
        <mxCell id="0" />
        <mxCell id="1" parent="0" />
        <mxCell id="ywbToXHBirDagY09YTrV-14" value="" style="rounded=0;whiteSpace=wrap;html=1;" vertex="1" parent="1">
          <mxGeometry x="320" y="480" width="150" height="160" as="geometry" />
        </mxCell>
        <mxCell id="ywbToXHBirDagY09YTrV-5" value="" style="aspect=fixed;sketch=0;html=1;dashed=0;whitespace=wrap;verticalLabelPosition=bottom;verticalAlign=top;fillColor=#2875E2;strokeColor=#ffffff;points=[[0.005,0.63,0],[0.1,0.2,0],[0.9,0.2,0],[0.5,0,0],[0.995,0.63,0],[0.72,0.99,0],[0.5,1,0],[0.28,0.99,0]];shape=mxgraph.kubernetes.icon2;kubernetesLabel=1;prIcon=pod" vertex="1" parent="1">
          <mxGeometry x="404.27" y="585" width="40.63" height="39" as="geometry" />
        </mxCell>
        <mxCell id="ywbToXHBirDagY09YTrV-6" value="" style="aspect=fixed;sketch=0;html=1;dashed=0;whitespace=wrap;verticalLabelPosition=bottom;verticalAlign=top;fillColor=#2875E2;strokeColor=#ffffff;points=[[0.005,0.63,0],[0.1,0.2,0],[0.9,0.2,0],[0.5,0,0],[0.995,0.63,0],[0.72,0.99,0],[0.5,1,0],[0.28,0.99,0]];shape=mxgraph.kubernetes.icon2;kubernetesLabel=1;prIcon=svc" vertex="1" parent="1">
          <mxGeometry x="360.00000000000006" y="520" width="39.59" height="38" as="geometry" />
        </mxCell>
        <mxCell id="ywbToXHBirDagY09YTrV-7" value="" style="aspect=fixed;sketch=0;html=1;dashed=0;whitespace=wrap;verticalLabelPosition=bottom;verticalAlign=top;fillColor=#2875E2;strokeColor=#ffffff;points=[[0.005,0.63,0],[0.1,0.2,0],[0.9,0.2,0],[0.5,0,0],[0.995,0.63,0],[0.72,0.99,0],[0.5,1,0],[0.28,0.99,0]];shape=mxgraph.kubernetes.icon2;kubernetesLabel=1;prIcon=node" vertex="1" parent="1">
          <mxGeometry x="300" y="460" width="41.67" height="40" as="geometry" />
        </mxCell>
        <mxCell id="ywbToXHBirDagY09YTrV-8" value="" style="endArrow=classic;html=1;rounded=0;entryX=0.5;entryY=1;entryDx=0;entryDy=0;entryPerimeter=0;exitX=0.5;exitY=0;exitDx=0;exitDy=0;exitPerimeter=0;" edge="1" parent="1" source="ywbToXHBirDagY09YTrV-19" target="ywbToXHBirDagY09YTrV-6">
          <mxGeometry width="50" height="50" relative="1" as="geometry">
            <mxPoint x="340" y="590" as="sourcePoint" />
            <mxPoint x="390" y="540" as="targetPoint" />
          </mxGeometry>
        </mxCell>
        <mxCell id="ywbToXHBirDagY09YTrV-10" value="" style="endArrow=classic;html=1;rounded=0;exitX=0.5;exitY=0;exitDx=0;exitDy=0;exitPerimeter=0;" edge="1" parent="1">
          <mxGeometry width="50" height="50" relative="1" as="geometry">
            <mxPoint x="379.63" y="520" as="sourcePoint" />
            <mxPoint x="380" y="480" as="targetPoint" />
          </mxGeometry>
        </mxCell>
        <mxCell id="ywbToXHBirDagY09YTrV-13" value="&lt;font style=&quot;font-size: 6px;&quot;&gt;svc/frontend-deployment&lt;/font&gt;" style="text;html=1;align=center;verticalAlign=middle;resizable=0;points=[];autosize=1;strokeColor=none;fillColor=none;" vertex="1" parent="1">
          <mxGeometry x="390" y="524" width="90" height="30" as="geometry" />
        </mxCell>
        <mxCell id="ywbToXHBirDagY09YTrV-18" value="&lt;span style=&quot;font-size: 6px; background-color: rgb(251, 251, 251);&quot;&gt;request:53172&lt;/span&gt;" style="edgeLabel;html=1;align=center;verticalAlign=middle;resizable=0;points=[];" vertex="1" connectable="0" parent="1">
          <mxGeometry x="420.00033655319874" y="500.0041426127183" as="geometry" />
        </mxCell>
        <mxCell id="ywbToXHBirDagY09YTrV-19" value="" style="aspect=fixed;sketch=0;html=1;dashed=0;whitespace=wrap;verticalLabelPosition=bottom;verticalAlign=top;fillColor=#2875E2;strokeColor=#ffffff;points=[[0.005,0.63,0],[0.1,0.2,0],[0.9,0.2,0],[0.5,0,0],[0.995,0.63,0],[0.72,0.99,0],[0.5,1,0],[0.28,0.99,0]];shape=mxgraph.kubernetes.icon2;kubernetesLabel=1;prIcon=pod" vertex="1" parent="1">
          <mxGeometry x="332.37" y="585" width="40.63" height="39" as="geometry" />
        </mxCell>
        <mxCell id="ywbToXHBirDagY09YTrV-20" value="" style="endArrow=classic;html=1;rounded=0;exitX=0.5;exitY=0;exitDx=0;exitDy=0;exitPerimeter=0;entryX=0.72;entryY=0.99;entryDx=0;entryDy=0;entryPerimeter=0;" edge="1" parent="1" source="ywbToXHBirDagY09YTrV-5" target="ywbToXHBirDagY09YTrV-6">
          <mxGeometry width="50" height="50" relative="1" as="geometry">
            <mxPoint x="413.29" y="554" as="sourcePoint" />
            <mxPoint x="385.0042857142857" y="599" as="targetPoint" />
          </mxGeometry>
        </mxCell>
        <mxCell id="ywbToXHBirDagY09YTrV-22" value="&lt;span style=&quot;font-size: 6px; background-color: rgb(251, 251, 251);&quot;&gt;request:3000&lt;/span&gt;" style="edgeLabel;html=1;align=center;verticalAlign=middle;resizable=0;points=[];" vertex="1" connectable="0" parent="1">
          <mxGeometry x="341.67033655319875" y="570.0041426127183" as="geometry" />
        </mxCell>
        <mxCell id="ywbToXHBirDagY09YTrV-23" value="&lt;span style=&quot;font-size: 6px; background-color: rgb(251, 251, 251);&quot;&gt;request:3000&lt;/span&gt;" style="edgeLabel;html=1;align=center;verticalAlign=middle;resizable=0;points=[];" vertex="1" connectable="0" parent="1">
          <mxGeometry x="435.00033655319874" y="570.0041426127183" as="geometry" />
        </mxCell>
        <mxCell id="ywbToXHBirDagY09YTrV-24" value="&lt;font style=&quot;font-size: 6px;&quot;&gt;frontend-deployment&lt;/font&gt;" style="text;html=1;align=center;verticalAlign=middle;resizable=0;points=[];autosize=1;strokeColor=none;fillColor=none;" vertex="1" parent="1">
          <mxGeometry x="395" y="610" width="80" height="30" as="geometry" />
        </mxCell>
        <mxCell id="ywbToXHBirDagY09YTrV-25" value="&lt;font style=&quot;font-size: 6px;&quot;&gt;frontend-deployment&lt;/font&gt;" style="text;html=1;align=center;verticalAlign=middle;resizable=0;points=[];autosize=1;strokeColor=none;fillColor=none;" vertex="1" parent="1">
          <mxGeometry x="320" y="610" width="80" height="30" as="geometry" />
        </mxCell>
      </root>
    </mxGraphModel>
  </diagram>
</mxfile>
